<?xml version="1.0" standalone="no"?><!DOCTYPE svg PUBLIC "-//W3C//DTD SVG 1.1//EN" "http://www.w3.org/Graphics/SVG/1.1/DTD/svg11.dtd"><svg t="1610097779032" class="icon" viewBox="0 0 1024 1024" version="1.1" xmlns="http://www.w3.org/2000/svg" p-id="4424" xmlns:xlink="http://www.w3.org/1999/xlink" width="64" height="64"><defs><style type="text/css"></style></defs><path d="M482.712 541.288a41.3 41.3 0 0 0 58.576 0l393.54-393.54a41.384 41.384 0 1 0-58.576-58.575l-393.54 393.54a41.384 41.384 0 0 0 0 58.575" fill="#ffffff" p-id="4425"></path><path d="M926.252 470.575A41.425 41.425 0 0 0 884.827 512l0.331 372.827-745.985 0.331-0.331-745.985H512a41.425 41.425 0 0 0 0-82.85H138.842a82.643 82.643 0 0 0-82.52 82.519v746.316c0 45.485 37.035 82.52 82.52 82.52h746.316a82.643 82.643 0 0 0 82.52-82.52V512a41.425 41.425 0 0 0-41.426-41.425" fill="#ffffff" p-id="4426"></path></svg>